<svg xmlns="http://www.w3.org/2000/svg" viewBox="0 0 48 48" fill="none">
  <circle cx="24" cy="24" r="23" fill="#F7F6F1" />
  <circle cx="24" cy="24" r="20.5" stroke="#0F6A66" stroke-width="1.5" />
  <path d="M24 11v24" stroke="#3F9644" stroke-width="2" stroke-linecap="round" />
  <path d="M24 15c-2.2-1.6-5.8-1.1-8 1.5 2.8 1.2 5.3 3 7.2 5.9 1.9-3 1.7-5.2.8-7.4z" fill="#4AA04C" />
  <path d="M24 22c-2.3-1.4-5.4-1.2-7.3 1 2.3 1 4.2 2.6 5.8 5 1.8-2 2.2-4 1.5-6z" fill="#449847" />
  <path d="M8 36c4.2-1.4 9.6-1.3 15.4.5 6 1.9 11.8 2.1 16.6.5v4H8v-5z" fill="#0F6A66" />
</svg>
